<?xml version="1.0" encoding="UTF-8" standalone="yes"?><svg xmlns="http://www.w3.org/2000/svg" xmlns:xlink="http://www.w3.org/1999/xlink" height="685px" style="width:320px;height:685px;" version="1.1" viewBox="0 0 320 685" width="320px"><defs><filter height="300%" id="f8ykavu" width="300%" x="-1" y="-1"><feGaussianBlur result="blurOut" stdDeviation="2.0"/><feColorMatrix in="blurOut" result="blurOut2" type="matrix" values="0 0 0 0 0 0 0 0 0 0 0 0 0 0 0 0 0 0 .4 0"/><feOffset dx="4.0" dy="4.0" in="blurOut2" result="blurOut3"/><feBlend in="SourceGraphic" in2="blurOut3" mode="normal"/></filter></defs><g><rect fill="#FEFECE" filter="url(#f8ykavu)" height="50" rx="12.5" ry="12.5" style="stroke: #A80036; stroke-width: 1.5;" width="50" x="91" y="118"/><line style="stroke: #A80036; stroke-width: 1.5;" x1="91" x2="141" y1="144.2969" y2="144.2969"/><text fill="#000000" font-family="sans-serif" font-size="14" lengthAdjust="spacingAndGlyphs" textLength="9" x="111.5" y="135.9951">A</text><rect fill="#FEFECE" filter="url(#f8ykavu)" height="50" rx="12.5" ry="12.5" style="stroke: #A80036; stroke-width: 1.5;" width="50" x="176" y="118"/><line style="stroke: #A80036; stroke-width: 1.5;" x1="176" x2="226" y1="144.2969" y2="144.2969"/><text fill="#000000" font-family="sans-serif" font-size="14" lengthAdjust="spacingAndGlyphs" textLength="10" x="196" y="135.9951">B</text><rect fill="#FEFECE" filter="url(#f8ykavu)" height="50" rx="12.5" ry="12.5" style="stroke: #A80036; stroke-width: 1.5;" width="50" x="176" y="8"/><line style="stroke: #A80036; stroke-width: 1.5;" x1="176" x2="226" y1="34.2969" y2="34.2969"/><text fill="#000000" font-family="sans-serif" font-size="14" lengthAdjust="spacingAndGlyphs" textLength="10" x="196" y="25.9951">C</text><rect fill="#FEFECE" filter="url(#f8ykavu)" height="50" rx="12.5" ry="12.5" style="stroke: #A80036; stroke-width: 1.5;" width="50" x="6" y="118"/><line style="stroke: #A80036; stroke-width: 1.5;" x1="6" x2="56" y1="144.2969" y2="144.2969"/><text fill="#000000" font-family="sans-serif" font-size="14" lengthAdjust="spacingAndGlyphs" textLength="11" x="25.5" y="135.9951">D</text><rect fill="#FEFECE" filter="url(#f8ykavu)" height="50" rx="12.5" ry="12.5" style="stroke: #A80036; stroke-width: 1.5;" width="50" x="261" y="228"/><line style="stroke: #A80036; stroke-width: 1.5;" x1="261" x2="311" y1="254.2969" y2="254.2969"/><text fill="#000000" font-family="sans-serif" font-size="14" lengthAdjust="spacingAndGlyphs" textLength="9" x="281.5" y="245.9951">E</text><rect fill="#FEFECE" filter="url(#f8ykavu)" height="50" rx="12.5" ry="12.5" style="stroke: #A80036; stroke-width: 1.5;" width="50" x="261" y="118"/><line style="stroke: #A80036; stroke-width: 1.5;" x1="261" x2="311" y1="144.2969" y2="144.2969"/><text fill="#000000" font-family="sans-serif" font-size="14" lengthAdjust="spacingAndGlyphs" textLength="8" x="282" y="135.9951">F</text><rect fill="#FEFECE" filter="url(#f8ykavu)" height="50" rx="12.5" ry="12.5" style="stroke: #A80036; stroke-width: 1.5;" width="50" x="91" y="8"/><line style="stroke: #A80036; stroke-width: 1.5;" x1="91" x2="141" y1="34.2969" y2="34.2969"/><text fill="#000000" font-family="sans-serif" font-size="14" lengthAdjust="spacingAndGlyphs" textLength="11" x="110.5" y="25.9951">G</text><rect fill="#FEFECE" filter="url(#f8ykavu)" height="50" rx="12.5" ry="12.5" style="stroke: #A80036; stroke-width: 1.5;" width="50" x="6" y="8"/><line style="stroke: #A80036; stroke-width: 1.5;" x1="6" x2="56" y1="34.2969" y2="34.2969"/><text fill="#000000" font-family="sans-serif" font-size="14" lengthAdjust="spacingAndGlyphs" textLength="10" x="26" y="25.9951">H</text><path d="M141.234,143 C151.042,143 160.85,143 170.658,143 " fill="none" style="stroke: #A80036; stroke-width: 1.0;"/><polygon fill="#A80036" points="175.786,143,166.786,139,170.786,143,166.786,147,175.786,143" style="stroke: #A80036; stroke-width: 1.0;"/><path d="M127.469,117.844 C129.919,101.742 130.153,80.479 128.168,63.395 " fill="none" style="stroke: #A80036; stroke-width: 1.0;"/><polygon fill="#A80036" points="127.481,58.237,124.7068,67.6871,128.1425,63.1931,132.6365,66.6287,127.481,58.237" style="stroke: #A80036; stroke-width: 1.0;"/><path d="M105.1568,58.237 C102.8493,74.357 102.6361,95.621 104.5173,112.691 " fill="none" style="stroke: #A80036; stroke-width: 1.0;"/><polygon fill="#A80036" points="105.1684,117.844,108.0107,108.4142,104.5427,112.8833,100.0736,109.4153,105.1684,117.844" style="stroke: #A80036; stroke-width: 1.0;"/><path d="M141.084,159.936 C171.844,179.4776 223.904,212.551 256.539,233.2833 " fill="none" style="stroke: #A80036; stroke-width: 1.0;"/><polygon fill="#A80036" points="260.813,235.9988,255.3616,227.7962,256.5927,233.3175,251.0715,234.5486,260.813,235.9988" style="stroke: #A80036; stroke-width: 1.0;"/><path d="M226.234,158.656 C236.132,162.203 246.03,162.7 255.928,160.147 " fill="none" style="stroke: #A80036; stroke-width: 1.0;"/><polygon fill="#A80036" points="260.786,158.648,251.007,157.4772,256.0079,160.1211,253.364,165.1221,260.786,158.648" style="stroke: #A80036; stroke-width: 1.0;"/><path d="M260.786,127.352 C250.889,123.8 240.991,123.298 231.093,125.848 " fill="none" style="stroke: #A80036; stroke-width: 1.0;"/><polygon fill="#A80036" points="226.234,127.344,236.0126,128.5183,231.0126,125.8726,233.6583,120.8726,226.234,127.344" style="stroke: #A80036; stroke-width: 1.0;"/><path d="M212.469,117.844 C214.919,101.742 215.153,80.479 213.168,63.395 " fill="none" style="stroke: #A80036; stroke-width: 1.0;"/><polygon fill="#A80036" points="212.481,58.237,209.7068,67.6871,213.1425,63.1931,217.6365,66.6287,212.481,58.237" style="stroke: #A80036; stroke-width: 1.0;"/><path d="M190.157,58.237 C187.849,74.357 187.636,95.621 189.517,112.691 " fill="none" style="stroke: #A80036; stroke-width: 1.0;"/><polygon fill="#A80036" points="190.168,117.844,193.0104,108.4142,189.5424,112.8833,185.0733,109.4152,190.168,117.844" style="stroke: #A80036; stroke-width: 1.0;"/><path d="M175.916,49.936 C145.156,69.478 93.0956,102.551 60.4615,123.283 " fill="none" style="stroke: #A80036; stroke-width: 1.0;"/><polygon fill="#A80036" points="56.187,125.999,65.9285,124.5486,60.4072,123.3176,61.6382,117.7963,56.187,125.999" style="stroke: #A80036; stroke-width: 1.0;"/><path d="M31,117.844 C31,101.742 31,80.479 31,63.395 " fill="none" style="stroke: #A80036; stroke-width: 1.0;"/><polygon fill="#A80036" points="31,58.237,27,67.237,31,63.237,35,67.237,31,58.237" style="stroke: #A80036; stroke-width: 1.0;"/><path d="M297.469,227.8436 C299.919,211.7416 300.153,190.4785 298.168,173.395 " fill="none" style="stroke: #A80036; stroke-width: 1.0;"/><polygon fill="#A80036" points="297.481,168.237,294.7068,177.6871,298.1425,173.1931,302.6365,176.6287,297.481,168.237" style="stroke: #A80036; stroke-width: 1.0;"/><path d="M275.157,168.237 C272.849,184.3565 272.636,205.6212 274.517,222.6911 " fill="none" style="stroke: #A80036; stroke-width: 1.0;"/><polygon fill="#A80036" points="275.168,227.8436,278.0083,218.4132,274.5413,222.883,270.0714,219.416,275.168,227.8436" style="stroke: #A80036; stroke-width: 1.0;"/><path d="M141.084,49.936 C171.844,69.478 223.904,102.551 256.539,123.283 " fill="none" style="stroke: #A80036; stroke-width: 1.0;"/><polygon fill="#A80036" points="260.813,125.999,255.362,117.7962,256.5929,123.3175,251.0716,124.5484,260.813,125.999" style="stroke: #A80036; stroke-width: 1.0;"/><path d="M141.234,33 C151.042,33 160.85,33 170.658,33 " fill="none" style="stroke: #A80036; stroke-width: 1.0;"/><polygon fill="#A80036" points="175.786,33,166.786,29,170.786,33,166.786,37,175.786,33" style="stroke: #A80036; stroke-width: 1.0;"/><path d="M61.0933,50.152 C70.991,52.702 80.8887,52.2 90.7864,48.648 " fill="none" style="stroke: #A80036; stroke-width: 1.0;"/><polygon fill="#A80036" points="56.2344,48.656,63.6582,55.1281,61.0129,50.1278,66.0131,47.4825,56.2344,48.656" style="stroke: #A80036; stroke-width: 1.0;"/><path d="M56.2344,17.344 C66.1321,13.797 76.0298,13.3 85.9275,15.853 " fill="none" style="stroke: #A80036; stroke-width: 1.0;"/><polygon fill="#A80036" points="90.7864,17.352,83.3655,10.8767,86.0086,15.8781,81.0072,18.5212,90.7864,17.352" style="stroke: #A80036; stroke-width: 1.0;"/><polygon fill="#DDDDDD" points="103,296,103,684.8281,225,684.8281,225,296,103,296" style="stroke: #000000; stroke-width: 1.0;"/><text fill="#000000" font-family="sans-serif" font-size="14" font-weight="bold" lengthAdjust="spacingAndGlyphs" textLength="105" x="109" y="315.9951">Relationships</text><text fill="#000000" font-family="sans-serif" font-size="14" lengthAdjust="spacingAndGlyphs" textLength="49" x="109" y="332.292">A --&gt; B</text><text fill="#000000" font-family="sans-serif" font-size="14" lengthAdjust="spacingAndGlyphs" textLength="50" x="109" y="348.5889">A --&gt; G</text><text fill="#000000" font-family="sans-serif" font-size="14" lengthAdjust="spacingAndGlyphs" textLength="48" x="109" y="364.8857">A --&gt; E</text><text fill="#000000" font-family="sans-serif" font-size="14" lengthAdjust="spacingAndGlyphs" textLength="48" x="109" y="381.1826">B --&gt; F</text><text fill="#000000" font-family="sans-serif" font-size="14" lengthAdjust="spacingAndGlyphs" textLength="50" x="109" y="397.4795">B --&gt; C</text><text fill="#000000" font-family="sans-serif" font-size="14" lengthAdjust="spacingAndGlyphs" text-decoration="line-through" textLength="5" x="109" y="413.7764">-</text><text fill="#000000" font-family="sans-serif" font-size="14" lengthAdjust="spacingAndGlyphs" textLength="10" x="114" y="413.7764">--</text><text fill="#000000" font-family="sans-serif" font-size="14" lengthAdjust="spacingAndGlyphs" textLength="50" x="109" y="430.0732">C --&gt; B</text><text fill="#000000" font-family="sans-serif" font-size="14" lengthAdjust="spacingAndGlyphs" textLength="51" x="109" y="446.3701">C --&gt; D</text><text fill="#000000" font-family="sans-serif" font-size="14" lengthAdjust="spacingAndGlyphs" text-decoration="line-through" textLength="5" x="109" y="462.667">-</text><text fill="#000000" font-family="sans-serif" font-size="14" lengthAdjust="spacingAndGlyphs" textLength="10" x="114" y="462.667">--</text><text fill="#000000" font-family="sans-serif" font-size="14" lengthAdjust="spacingAndGlyphs" textLength="51" x="109" y="478.9639">D --&gt; H</text><text fill="#000000" font-family="sans-serif" font-size="14" lengthAdjust="spacingAndGlyphs" text-decoration="line-through" textLength="5" x="109" y="495.2607">-</text><text fill="#000000" font-family="sans-serif" font-size="14" lengthAdjust="spacingAndGlyphs" textLength="10" x="114" y="495.2607">--</text><text fill="#000000" font-family="sans-serif" font-size="14" lengthAdjust="spacingAndGlyphs" textLength="47" x="109" y="511.5576">E --&gt; F</text><text fill="#000000" font-family="sans-serif" font-size="14" lengthAdjust="spacingAndGlyphs" text-decoration="line-through" textLength="5" x="109" y="527.8545">-</text><text fill="#000000" font-family="sans-serif" font-size="14" lengthAdjust="spacingAndGlyphs" textLength="10" x="114" y="527.8545">--</text><text fill="#000000" font-family="sans-serif" font-size="14" lengthAdjust="spacingAndGlyphs" textLength="48" x="109" y="544.1514">F --&gt; B</text><text fill="#000000" font-family="sans-serif" font-size="14" lengthAdjust="spacingAndGlyphs" textLength="47" x="109" y="560.4482">F --&gt; E</text><text fill="#000000" font-family="sans-serif" font-size="14" lengthAdjust="spacingAndGlyphs" text-decoration="line-through" textLength="5" x="109" y="576.7451">-</text><text fill="#000000" font-family="sans-serif" font-size="14" lengthAdjust="spacingAndGlyphs" textLength="10" x="114" y="576.7451">--</text><text fill="#000000" font-family="sans-serif" font-size="14" lengthAdjust="spacingAndGlyphs" textLength="50" x="109" y="593.042">G --&gt; A</text><text fill="#000000" font-family="sans-serif" font-size="14" lengthAdjust="spacingAndGlyphs" textLength="49" x="109" y="609.3389">G --&gt; F</text><text fill="#000000" font-family="sans-serif" font-size="14" lengthAdjust="spacingAndGlyphs" textLength="51" x="109" y="625.6357">G --&gt; C</text><text fill="#000000" font-family="sans-serif" font-size="14" lengthAdjust="spacingAndGlyphs" textLength="51" x="109" y="641.9326">G --&gt; H</text><text fill="#000000" font-family="sans-serif" font-size="14" lengthAdjust="spacingAndGlyphs" text-decoration="line-through" textLength="5" x="109" y="658.2295">-</text><text fill="#000000" font-family="sans-serif" font-size="14" lengthAdjust="spacingAndGlyphs" textLength="10" x="114" y="658.2295">--</text><text fill="#000000" font-family="sans-serif" font-size="14" lengthAdjust="spacingAndGlyphs" textLength="51" x="109" y="674.5264">H --&gt; G</text><line style="stroke: #000000; stroke-width: 1.0;" x1="109" x2="219" y1="303" y2="303"/><line style="stroke: #000000; stroke-width: 1.0;" x1="109" x2="219" y1="319.2969" y2="319.2969"/><line style="stroke: #000000; stroke-width: 1.0;" x1="109" x2="219" y1="335.5938" y2="335.5938"/><line style="stroke: #000000; stroke-width: 1.0;" x1="109" x2="219" y1="351.8906" y2="351.8906"/><line style="stroke: #000000; stroke-width: 1.0;" x1="109" x2="219" y1="368.1875" y2="368.1875"/><line style="stroke: #000000; stroke-width: 1.0;" x1="109" x2="219" y1="384.4844" y2="384.4844"/><line style="stroke: #000000; stroke-width: 1.0;" x1="109" x2="219" y1="400.7813" y2="400.7813"/><line style="stroke: #000000; stroke-width: 1.0;" x1="109" x2="219" y1="417.0781" y2="417.0781"/><line style="stroke: #000000; stroke-width: 1.0;" x1="109" x2="219" y1="433.375" y2="433.375"/><line style="stroke: #000000; stroke-width: 1.0;" x1="109" x2="219" y1="449.6719" y2="449.6719"/><line style="stroke: #000000; stroke-width: 1.0;" x1="109" x2="219" y1="465.9688" y2="465.9688"/><line style="stroke: #000000; stroke-width: 1.0;" x1="109" x2="219" y1="482.2656" y2="482.2656"/><line style="stroke: #000000; stroke-width: 1.0;" x1="109" x2="219" y1="498.5625" y2="498.5625"/><line style="stroke: #000000; stroke-width: 1.0;" x1="109" x2="219" y1="514.8594" y2="514.8594"/><line style="stroke: #000000; stroke-width: 1.0;" x1="109" x2="219" y1="531.1563" y2="531.1563"/><line style="stroke: #000000; stroke-width: 1.0;" x1="109" x2="219" y1="547.4531" y2="547.4531"/><line style="stroke: #000000; stroke-width: 1.0;" x1="109" x2="219" y1="563.75" y2="563.75"/><line style="stroke: #000000; stroke-width: 1.0;" x1="109" x2="219" y1="580.0469" y2="580.0469"/><line style="stroke: #000000; stroke-width: 1.0;" x1="109" x2="219" y1="596.3438" y2="596.3438"/><line style="stroke: #000000; stroke-width: 1.0;" x1="109" x2="219" y1="612.6406" y2="612.6406"/><line style="stroke: #000000; stroke-width: 1.0;" x1="109" x2="219" y1="628.9375" y2="628.9375"/><line style="stroke: #000000; stroke-width: 1.0;" x1="109" x2="219" y1="645.2344" y2="645.2344"/><line style="stroke: #000000; stroke-width: 1.0;" x1="109" x2="219" y1="661.5313" y2="661.5313"/><line style="stroke: #000000; stroke-width: 1.0;" x1="109" x2="219" y1="677.8281" y2="677.8281"/><line style="stroke: #000000; stroke-width: 1.0;" x1="109" x2="109" y1="303" y2="677.8281"/><line style="stroke: #000000; stroke-width: 1.0;" x1="219" x2="219" y1="303" y2="677.8281"/></g></svg>