<?xml version="1.0" encoding="UTF-8" standalone="yes"?><svg xmlns="http://www.w3.org/2000/svg" xmlns:xlink="http://www.w3.org/1999/xlink" height="687px" style="width:526px;height:687px;" version="1.1" viewBox="0 0 526 687" width="526px"><defs><filter height="300%" id="fs95ii6" width="300%" x="-1" y="-1"><feGaussianBlur result="blurOut" stdDeviation="2.0"/><feColorMatrix in="blurOut" result="blurOut2" type="matrix" values="0 0 0 0 0 0 0 0 0 0 0 0 0 0 0 0 0 0 .4 0"/><feOffset dx="4.0" dy="4.0" in="blurOut2" result="blurOut3"/><feBlend in="SourceGraphic" in2="blurOut3" mode="normal"/></filter></defs><g><rect fill="#FEFECE" filter="url(#fs95ii6)" height="50" rx="12.5" ry="12.5" style="stroke: #A80036; stroke-width: 1.5;" width="50" x="227" y="119"/><line style="stroke: #A80036; stroke-width: 1.5;" x1="227" x2="277" y1="145.2969" y2="145.2969"/><text fill="#000000" font-family="sans-serif" font-size="14" lengthAdjust="spacingAndGlyphs" textLength="9" x="247.5" y="136.9951">A</text><rect fill="#FEFECE" filter="url(#fs95ii6)" height="50" rx="12.5" ry="12.5" style="stroke: #A80036; stroke-width: 1.5;" width="50" x="347" y="119"/><line style="stroke: #A80036; stroke-width: 1.5;" x1="347" x2="397" y1="145.2969" y2="145.2969"/><text fill="#000000" font-family="sans-serif" font-size="14" lengthAdjust="spacingAndGlyphs" textLength="10" x="367" y="136.9951">B</text><rect fill="#FEFECE" filter="url(#fs95ii6)" height="50" rx="12.5" ry="12.5" style="stroke: #A80036; stroke-width: 1.5;" width="50" x="384" y="8"/><line style="stroke: #A80036; stroke-width: 1.5;" x1="384" x2="434" y1="34.2969" y2="34.2969"/><text fill="#000000" font-family="sans-serif" font-size="14" lengthAdjust="spacingAndGlyphs" textLength="10" x="404" y="25.9951">C</text><rect fill="#FEFECE" filter="url(#fs95ii6)" height="50" rx="12.5" ry="12.5" style="stroke: #A80036; stroke-width: 1.5;" width="50" x="138" y="119"/><line style="stroke: #A80036; stroke-width: 1.5;" x1="138" x2="188" y1="145.2969" y2="145.2969"/><text fill="#000000" font-family="sans-serif" font-size="14" lengthAdjust="spacingAndGlyphs" textLength="11" x="157.5" y="136.9951">D</text><rect fill="#FEFECE" filter="url(#fs95ii6)" height="50" rx="12.5" ry="12.5" style="stroke: #A80036; stroke-width: 1.5;" width="50" x="467" y="230"/><line style="stroke: #A80036; stroke-width: 1.5;" x1="467" x2="517" y1="256.2969" y2="256.2969"/><text fill="#000000" font-family="sans-serif" font-size="14" lengthAdjust="spacingAndGlyphs" textLength="9" x="487.5" y="247.9951">E</text><rect fill="#FEFECE" filter="url(#fs95ii6)" height="50" rx="12.5" ry="12.5" style="stroke: #A80036; stroke-width: 1.5;" width="50" x="467" y="119"/><line style="stroke: #A80036; stroke-width: 1.5;" x1="467" x2="517" y1="145.2969" y2="145.2969"/><text fill="#000000" font-family="sans-serif" font-size="14" lengthAdjust="spacingAndGlyphs" textLength="8" x="488" y="136.9951">F</text><rect fill="#FEFECE" filter="url(#fs95ii6)" height="50" rx="12.5" ry="12.5" style="stroke: #A80036; stroke-width: 1.5;" width="50" x="264" y="8"/><line style="stroke: #A80036; stroke-width: 1.5;" x1="264" x2="314" y1="34.2969" y2="34.2969"/><text fill="#000000" font-family="sans-serif" font-size="14" lengthAdjust="spacingAndGlyphs" textLength="11" x="283.5" y="25.9951">G</text><rect fill="#FEFECE" filter="url(#fs95ii6)" height="50" rx="12.5" ry="12.5" style="stroke: #A80036; stroke-width: 1.5;" width="50" x="126" y="8"/><line style="stroke: #A80036; stroke-width: 1.5;" x1="126" x2="176" y1="34.2969" y2="34.2969"/><text fill="#000000" font-family="sans-serif" font-size="14" lengthAdjust="spacingAndGlyphs" textLength="10" x="146" y="25.9951">H</text><rect fill="#FEFECE" filter="url(#fs95ii6)" height="50" rx="12.5" ry="12.5" style="stroke: #A80036; stroke-width: 1.5;" width="50" x="6" y="8"/><line style="stroke: #A80036; stroke-width: 1.5;" x1="6" x2="56" y1="34.2969" y2="34.2969"/><text fill="#000000" font-family="sans-serif" font-size="14" lengthAdjust="spacingAndGlyphs" textLength="7" x="27.5" y="25.9951">L</text><path d="M277.312,144 C298.771,144 320.229,144 341.688,144 " fill="none" style="stroke: #A80036; stroke-width: 1.0;"/><polygon fill="#A80036" points="346.849,144,337.849,140,341.849,144,337.849,148,346.849,144" style="stroke: #A80036; stroke-width: 1.0;"/><path d="M271.618,118.877 C279.668,102.522 287.277,80.804 291.15,63.432 " fill="none" style="stroke: #A80036; stroke-width: 1.0;"/><polygon fill="#A80036" points="292.229,58.191,286.4958,66.1991,291.2204,63.0882,294.3313,67.8129,292.229,58.191" style="stroke: #A80036; stroke-width: 1.0;"/><path d="M269.984,58.191 C262.074,74.56 254.483,96.279 250.508,113.64 " fill="none" style="stroke: #A80036; stroke-width: 1.0;"/><polygon fill="#A80036" points="249.394,118.877,255.1805,110.9073,250.4352,113.9866,247.3559,109.2413,249.394,118.877" style="stroke: #A80036; stroke-width: 1.0;"/><path d="M277.231,156.459 C321.794,176.698 414.231,218.6801 461.989,240.3699 " fill="none" style="stroke: #A80036; stroke-width: 1.0;"/><polygon fill="#A80036" points="466.747,242.5311,460.208,235.1663,462.1949,240.4627,456.8985,242.4496,466.747,242.5311" style="stroke: #A80036; stroke-width: 1.0;"/><path d="M397.312,156.483 C418.861,164.269 440.41,164.8 461.959,158.075 " fill="none" style="stroke: #A80036; stroke-width: 1.0;"/><polygon fill="#A80036" points="466.849,156.425,457.0425,155.5126,462.1115,158.0237,459.6004,163.0927,466.849,156.425" style="stroke: #A80036; stroke-width: 1.0;"/><path d="M466.849,131.575 C445.3,123.753 423.751,123.186 402.202,129.875 " fill="none" style="stroke: #A80036; stroke-width: 1.0;"/><polygon fill="#A80036" points="397.312,131.517,407.1173,132.4418,402.0515,129.9243,404.569,124.8585,397.312,131.517" style="stroke: #A80036; stroke-width: 1.0;"/><path d="M391.618,118.877 C399.668,102.522 407.277,80.804 411.15,63.432 " fill="none" style="stroke: #A80036; stroke-width: 1.0;"/><polygon fill="#A80036" points="412.229,58.191,406.4958,66.1991,411.2204,63.0882,414.3313,67.8129,412.229,58.191" style="stroke: #A80036; stroke-width: 1.0;"/><path d="M389.984,58.191 C382.074,74.56 374.483,96.279 370.508,113.64 " fill="none" style="stroke: #A80036; stroke-width: 1.0;"/><polygon fill="#A80036" points="369.394,118.877,375.1805,110.9073,370.4352,113.9866,367.3559,109.2413,369.394,118.877" style="stroke: #A80036; stroke-width: 1.0;"/><path d="M383.939,44.06 C345.971,59.445 271.753,90.086 210,119 C204.425,121.61 198.539,124.504 192.889,127.351 " fill="none" style="stroke: #A80036; stroke-width: 1.0;"/><polygon fill="#A80036" points="188.211,129.726,198.0468,129.2197,192.6696,127.4631,194.4262,122.0859,188.211,129.726" style="stroke: #A80036; stroke-width: 1.0;"/><path d="M160.344,118.877 C158.544,102.522 156.153,80.804 154.24,63.432 " fill="none" style="stroke: #A80036; stroke-width: 1.0;"/><polygon fill="#A80036" points="153.663,58.191,150.6719,67.5747,154.2101,63.161,158.6238,66.6992,153.663,58.191" style="stroke: #A80036; stroke-width: 1.0;"/><path d="M503.43,229.877 C505.928,213.522 506.165,191.8045 504.141,174.432 " fill="none" style="stroke: #A80036; stroke-width: 1.0;"/><polygon fill="#A80036" points="503.44,169.191,500.6658,178.6411,504.1015,174.1471,508.5955,177.5827,503.44,169.191" style="stroke: #A80036; stroke-width: 1.0;"/><path d="M481.195,169.191 C478.842,185.5604 478.624,207.2793 480.542,224.6399 " fill="none" style="stroke: #A80036; stroke-width: 1.0;"/><polygon fill="#A80036" points="481.205,229.877,484.0418,220.4455,480.5764,224.9167,476.1053,221.4513,481.205,229.877" style="stroke: #A80036; stroke-width: 1.0;"/><path d="M314.3,47.585 C351.782,67.711 421.938,105.38 461.972,126.877 " fill="none" style="stroke: #A80036; stroke-width: 1.0;"/><polygon fill="#A80036" points="466.701,129.416,460.6652,121.6334,462.2962,127.05,456.8796,128.6811,466.701,129.416" style="stroke: #A80036; stroke-width: 1.0;"/><path d="M314.312,33 C335.771,33 357.229,33 378.688,33 " fill="none" style="stroke: #A80036; stroke-width: 1.0;"/><polygon fill="#A80036" points="383.849,33,374.849,29,378.849,33,374.849,37,383.849,33" style="stroke: #A80036; stroke-width: 1.0;"/><path d="M180.867,45.719 C208.53,54.245 236.192,53.731 263.855,44.176 " fill="none" style="stroke: #A80036; stroke-width: 1.0;"/><polygon fill="#A80036" points="176.066,44.149,183.3745,50.7509,180.8178,45.7048,185.8639,43.1481,176.066,44.149" style="stroke: #A80036; stroke-width: 1.0;"/><path d="M176.066,21.851 C203.729,12.279 231.391,11.747 259.054,20.257 " fill="none" style="stroke: #A80036; stroke-width: 1.0;"/><polygon fill="#A80036" points="263.855,21.824,256.5423,15.2267,259.1022,20.2712,254.0578,22.8311,263.855,21.824" style="stroke: #A80036; stroke-width: 1.0;"/><path d="M181.582,23.2 C197.095,21.774 211,25.04 211,33 C211,41.859 193.773,44.905 176.278,42.136 " fill="none" style="stroke: #A80036; stroke-width: 1.0;"/><polygon fill="#A80036" points="176.278,23.864,185.7046,26.7168,181.2394,23.2438,184.7124,18.7786,176.278,23.864" style="stroke: #A80036; stroke-width: 1.0;"/><path d="M61.3542,33 C81.3005,33 107.085,33 125.877,33 " fill="none" style="stroke: #A80036; stroke-width: 1.0;"/><polygon fill="#A80036" points="56.1559,33,65.1559,37,61.1559,33,65.1559,29,56.1559,33" style="stroke: #A80036; stroke-width: 1.0;"/><text fill="#000000" font-family="sans-serif" font-size="13" lengthAdjust="spacingAndGlyphs" textLength="31" x="75.5" y="26.0669">1 .. *</text><polygon fill="#DDDDDD" points="206,298,206,686.8281,328,686.8281,328,298,206,298" style="stroke: #000000; stroke-width: 1.0;"/><text fill="#000000" font-family="sans-serif" font-size="14" font-weight="bold" lengthAdjust="spacingAndGlyphs" textLength="105" x="212" y="317.9951">Relationships</text><text fill="#000000" font-family="sans-serif" font-size="14" lengthAdjust="spacingAndGlyphs" textLength="49" x="212" y="334.292">A --&gt; B</text><text fill="#000000" font-family="sans-serif" font-size="14" lengthAdjust="spacingAndGlyphs" textLength="50" x="212" y="350.5889">A --&gt; G</text><text fill="#000000" font-family="sans-serif" font-size="14" lengthAdjust="spacingAndGlyphs" textLength="48" x="212" y="366.8857">A --&gt; E</text><text fill="#000000" font-family="sans-serif" font-size="14" lengthAdjust="spacingAndGlyphs" textLength="48" x="212" y="383.1826">B --&gt; F</text><text fill="#000000" font-family="sans-serif" font-size="14" lengthAdjust="spacingAndGlyphs" textLength="50" x="212" y="399.4795">B --&gt; C</text><text fill="#000000" font-family="sans-serif" font-size="14" lengthAdjust="spacingAndGlyphs" text-decoration="line-through" textLength="5" x="212" y="415.7764">-</text><text fill="#000000" font-family="sans-serif" font-size="14" lengthAdjust="spacingAndGlyphs" textLength="10" x="217" y="415.7764">--</text><text fill="#000000" font-family="sans-serif" font-size="14" lengthAdjust="spacingAndGlyphs" textLength="50" x="212" y="432.0732">C --&gt; B</text><text fill="#000000" font-family="sans-serif" font-size="14" lengthAdjust="spacingAndGlyphs" textLength="51" x="212" y="448.3701">C --&gt; D</text><text fill="#000000" font-family="sans-serif" font-size="14" lengthAdjust="spacingAndGlyphs" text-decoration="line-through" textLength="5" x="212" y="464.667">-</text><text fill="#000000" font-family="sans-serif" font-size="14" lengthAdjust="spacingAndGlyphs" textLength="10" x="217" y="464.667">--</text><text fill="#000000" font-family="sans-serif" font-size="14" lengthAdjust="spacingAndGlyphs" textLength="51" x="212" y="480.9639">D --&gt; H</text><text fill="#000000" font-family="sans-serif" font-size="14" lengthAdjust="spacingAndGlyphs" text-decoration="line-through" textLength="5" x="212" y="497.2607">-</text><text fill="#000000" font-family="sans-serif" font-size="14" lengthAdjust="spacingAndGlyphs" textLength="10" x="217" y="497.2607">--</text><text fill="#000000" font-family="sans-serif" font-size="14" lengthAdjust="spacingAndGlyphs" textLength="47" x="212" y="513.5576">E --&gt; F</text><text fill="#000000" font-family="sans-serif" font-size="14" lengthAdjust="spacingAndGlyphs" text-decoration="line-through" textLength="5" x="212" y="529.8545">-</text><text fill="#000000" font-family="sans-serif" font-size="14" lengthAdjust="spacingAndGlyphs" textLength="10" x="217" y="529.8545">--</text><text fill="#000000" font-family="sans-serif" font-size="14" lengthAdjust="spacingAndGlyphs" textLength="48" x="212" y="546.1514">F --&gt; B</text><text fill="#000000" font-family="sans-serif" font-size="14" lengthAdjust="spacingAndGlyphs" textLength="47" x="212" y="562.4482">F --&gt; E</text><text fill="#000000" font-family="sans-serif" font-size="14" lengthAdjust="spacingAndGlyphs" text-decoration="line-through" textLength="5" x="212" y="578.7451">-</text><text fill="#000000" font-family="sans-serif" font-size="14" lengthAdjust="spacingAndGlyphs" textLength="10" x="217" y="578.7451">--</text><text fill="#000000" font-family="sans-serif" font-size="14" lengthAdjust="spacingAndGlyphs" textLength="50" x="212" y="595.042">G --&gt; A</text><text fill="#000000" font-family="sans-serif" font-size="14" lengthAdjust="spacingAndGlyphs" textLength="49" x="212" y="611.3389">G --&gt; F</text><text fill="#000000" font-family="sans-serif" font-size="14" lengthAdjust="spacingAndGlyphs" textLength="51" x="212" y="627.6357">G --&gt; C</text><text fill="#000000" font-family="sans-serif" font-size="14" lengthAdjust="spacingAndGlyphs" textLength="51" x="212" y="643.9326">G --&gt; H</text><text fill="#000000" font-family="sans-serif" font-size="14" lengthAdjust="spacingAndGlyphs" text-decoration="line-through" textLength="5" x="212" y="660.2295">-</text><text fill="#000000" font-family="sans-serif" font-size="14" lengthAdjust="spacingAndGlyphs" textLength="10" x="217" y="660.2295">--</text><text fill="#000000" font-family="sans-serif" font-size="14" lengthAdjust="spacingAndGlyphs" textLength="51" x="212" y="676.5264">H --&gt; G</text><line style="stroke: #000000; stroke-width: 1.0;" x1="212" x2="322" y1="305" y2="305"/><line style="stroke: #000000; stroke-width: 1.0;" x1="212" x2="322" y1="321.2969" y2="321.2969"/><line style="stroke: #000000; stroke-width: 1.0;" x1="212" x2="322" y1="337.5938" y2="337.5938"/><line style="stroke: #000000; stroke-width: 1.0;" x1="212" x2="322" y1="353.8906" y2="353.8906"/><line style="stroke: #000000; stroke-width: 1.0;" x1="212" x2="322" y1="370.1875" y2="370.1875"/><line style="stroke: #000000; stroke-width: 1.0;" x1="212" x2="322" y1="386.4844" y2="386.4844"/><line style="stroke: #000000; stroke-width: 1.0;" x1="212" x2="322" y1="402.7813" y2="402.7813"/><line style="stroke: #000000; stroke-width: 1.0;" x1="212" x2="322" y1="419.0781" y2="419.0781"/><line style="stroke: #000000; stroke-width: 1.0;" x1="212" x2="322" y1="435.375" y2="435.375"/><line style="stroke: #000000; stroke-width: 1.0;" x1="212" x2="322" y1="451.6719" y2="451.6719"/><line style="stroke: #000000; stroke-width: 1.0;" x1="212" x2="322" y1="467.9688" y2="467.9688"/><line style="stroke: #000000; stroke-width: 1.0;" x1="212" x2="322" y1="484.2656" y2="484.2656"/><line style="stroke: #000000; stroke-width: 1.0;" x1="212" x2="322" y1="500.5625" y2="500.5625"/><line style="stroke: #000000; stroke-width: 1.0;" x1="212" x2="322" y1="516.8594" y2="516.8594"/><line style="stroke: #000000; stroke-width: 1.0;" x1="212" x2="322" y1="533.1563" y2="533.1563"/><line style="stroke: #000000; stroke-width: 1.0;" x1="212" x2="322" y1="549.4531" y2="549.4531"/><line style="stroke: #000000; stroke-width: 1.0;" x1="212" x2="322" y1="565.75" y2="565.75"/><line style="stroke: #000000; stroke-width: 1.0;" x1="212" x2="322" y1="582.0469" y2="582.0469"/><line style="stroke: #000000; stroke-width: 1.0;" x1="212" x2="322" y1="598.3438" y2="598.3438"/><line style="stroke: #000000; stroke-width: 1.0;" x1="212" x2="322" y1="614.6406" y2="614.6406"/><line style="stroke: #000000; stroke-width: 1.0;" x1="212" x2="322" y1="630.9375" y2="630.9375"/><line style="stroke: #000000; stroke-width: 1.0;" x1="212" x2="322" y1="647.2344" y2="647.2344"/><line style="stroke: #000000; stroke-width: 1.0;" x1="212" x2="322" y1="663.5313" y2="663.5313"/><line style="stroke: #000000; stroke-width: 1.0;" x1="212" x2="322" y1="679.8281" y2="679.8281"/><line style="stroke: #000000; stroke-width: 1.0;" x1="212" x2="212" y1="305" y2="679.8281"/><line style="stroke: #000000; stroke-width: 1.0;" x1="322" x2="322" y1="305" y2="679.8281"/></g></svg>