<?xml version="1.0" encoding="UTF-8" standalone="yes"?><svg xmlns="http://www.w3.org/2000/svg" xmlns:xlink="http://www.w3.org/1999/xlink" height="258px" style="width:951px;height:258px;" version="1.1" viewBox="0 0 951 258" width="951px"><defs><filter height="300%" id="fdzpv91" width="300%" x="-1" y="-1"><feGaussianBlur result="blurOut" stdDeviation="2.0"/><feColorMatrix in="blurOut" result="blurOut2" type="matrix" values="0 0 0 0 0 0 0 0 0 0 0 0 0 0 0 0 0 0 .4 0"/><feOffset dx="4.0" dy="4.0" in="blurOut2" result="blurOut3"/><feBlend in="SourceGraphic" in2="blurOut3" mode="normal"/></filter></defs><g><rect fill="#FFFFFF" filter="url(#fdzpv91)" height="147.6641" style="stroke: #000000; stroke-width: 2.0;" width="929" x="13" y="55.2969"/><line style="stroke: #A80036; stroke-width: 1.0; stroke-dasharray: 5.0,5.0;" x1="65" x2="65" y1="38.2969" y2="219.9609"/><line style="stroke: #A80036; stroke-width: 1.0; stroke-dasharray: 5.0,5.0;" x1="324.5" x2="324.5" y1="38.2969" y2="219.9609"/><line style="stroke: #A80036; stroke-width: 1.0; stroke-dasharray: 5.0,5.0;" x1="442.5" x2="442.5" y1="38.2969" y2="219.9609"/><line style="stroke: #A80036; stroke-width: 1.0; stroke-dasharray: 5.0,5.0;" x1="715" x2="715" y1="38.2969" y2="219.9609"/><line style="stroke: #A80036; stroke-width: 1.0; stroke-dasharray: 5.0,5.0;" x1="857" x2="857" y1="38.2969" y2="219.9609"/><rect fill="#FEFECE" filter="url(#fdzpv91)" height="30.2969" style="stroke: #A80036; stroke-width: 1.5;" width="81" x="23" y="3"/><text fill="#000000" font-family="sans-serif" font-size="14" lengthAdjust="spacingAndGlyphs" textLength="67" x="30" y="22.9951">Controller</text><rect fill="#FEFECE" filter="url(#fdzpv91)" height="30.2969" style="stroke: #A80036; stroke-width: 1.5;" width="81" x="23" y="218.9609"/><text fill="#000000" font-family="sans-serif" font-size="14" lengthAdjust="spacingAndGlyphs" textLength="67" x="30" y="238.9561">Controller</text><rect fill="#FEFECE" filter="url(#fdzpv91)" height="30.2969" style="stroke: #A80036; stroke-width: 1.5;" width="94" x="275.5" y="3"/><text fill="#000000" font-family="sans-serif" font-size="14" lengthAdjust="spacingAndGlyphs" textLength="80" x="282.5" y="22.9951">ClassFinder</text><rect fill="#FEFECE" filter="url(#fdzpv91)" height="30.2969" style="stroke: #A80036; stroke-width: 1.5;" width="94" x="275.5" y="218.9609"/><text fill="#000000" font-family="sans-serif" font-size="14" lengthAdjust="spacingAndGlyphs" textLength="80" x="282.5" y="238.9561">ClassFinder</text><rect fill="#FEFECE" filter="url(#fdzpv91)" height="30.2969" style="stroke: #A80036; stroke-width: 1.5;" width="115" x="383.5" y="3"/><text fill="#000000" font-family="sans-serif" font-size="14" lengthAdjust="spacingAndGlyphs" textLength="101" x="390.5" y="22.9951">FieldsClassifier</text><rect fill="#FEFECE" filter="url(#fdzpv91)" height="30.2969" style="stroke: #A80036; stroke-width: 1.5;" width="115" x="383.5" y="218.9609"/><text fill="#000000" font-family="sans-serif" font-size="14" lengthAdjust="spacingAndGlyphs" textLength="101" x="390.5" y="238.9561">FieldsClassifier</text><rect fill="#FEFECE" filter="url(#fdzpv91)" height="30.2969" style="stroke: #A80036; stroke-width: 1.5;" width="112" x="657" y="3"/><text fill="#000000" font-family="sans-serif" font-size="14" lengthAdjust="spacingAndGlyphs" textLength="98" x="664" y="22.9951">ValueAssigner</text><rect fill="#FEFECE" filter="url(#fdzpv91)" height="30.2969" style="stroke: #A80036; stroke-width: 1.5;" width="112" x="657" y="218.9609"/><text fill="#000000" font-family="sans-serif" font-size="14" lengthAdjust="spacingAndGlyphs" textLength="98" x="664" y="238.9561">ValueAssigner</text><rect fill="#FEFECE" filter="url(#fdzpv91)" height="30.2969" style="stroke: #A80036; stroke-width: 1.5;" width="145" x="783" y="3"/><text fill="#000000" font-family="sans-serif" font-size="14" lengthAdjust="spacingAndGlyphs" textLength="131" x="790" y="22.9951">RelationshipsStack</text><rect fill="#FEFECE" filter="url(#fdzpv91)" height="30.2969" style="stroke: #A80036; stroke-width: 1.5;" width="145" x="783" y="218.9609"/><text fill="#000000" font-family="sans-serif" font-size="14" lengthAdjust="spacingAndGlyphs" textLength="131" x="790" y="238.9561">RelationshipsStack</text><rect fill="none" height="147.6641" style="stroke: #000000; stroke-width: 2.0;" width="929" x="13" y="55.2969"/><polygon fill="#EEEEEE" points="13,55.2969,592,55.2969,592,62.2969,582,72.2969,13,72.2969,13,55.2969" style="stroke: #000000; stroke-width: 2.0;"/><text fill="#000000" font-family="sans-serif" font-size="13" font-weight="bold" lengthAdjust="spacingAndGlyphs" textLength="443" x="28" y="68.3638">User looks to create complete structure of pojo creation for</text><text fill="#000000" font-family="sans-serif" font-size="13" font-weight="bold" lengthAdjust="spacingAndGlyphs" textLength="86" x="476" y="68.3638">clazz: Class</text><polygon fill="#A80036" points="312.5,89.4297,322.5,93.4297,312.5,97.4297,316.5,93.4297" style="stroke: #A80036; stroke-width: 1.0;"/><line style="stroke: #A80036; stroke-width: 1.0;" x1="65.5" x2="318.5" y1="93.4297" y2="93.4297"/><text fill="#000000" font-family="sans-serif" font-size="13" lengthAdjust="spacingAndGlyphs" textLength="235" x="72.5" y="88.4966">FillableClass foundClass = find(clazz)</text><polygon fill="#A80036" points="431,118.5625,441,122.5625,431,126.5625,435,122.5625" style="stroke: #A80036; stroke-width: 1.0;"/><line style="stroke: #A80036; stroke-width: 1.0;" x1="65.5" x2="437" y1="122.5625" y2="122.5625"/><text fill="#000000" font-family="sans-serif" font-size="13" lengthAdjust="spacingAndGlyphs" textLength="220" x="72.5" y="117.6294">foundClass.attributes = find(clazz)</text><polygon fill="#A80036" points="703,147.6953,713,151.6953,703,155.6953,707,151.6953" style="stroke: #A80036; stroke-width: 1.0;"/><line style="stroke: #A80036; stroke-width: 1.0; stroke-dasharray: 2.0,2.0;" x1="443" x2="709" y1="151.6953" y2="151.6953"/><text fill="#000000" font-family="sans-serif" font-size="13" lengthAdjust="spacingAndGlyphs" textLength="248" x="450" y="146.7622">fillPrimitiveFields(foundclass.attributes)</text><polygon fill="#A80036" points="76.5,161.8281,66.5,165.8281,76.5,169.8281,72.5,165.8281" style="stroke: #A80036; stroke-width: 1.0;"/><line style="stroke: #A80036; stroke-width: 1.0; stroke-dasharray: 2.0,2.0;" x1="70.5" x2="442" y1="165.8281" y2="165.8281"/><polygon fill="#A80036" points="845.5,190.8281,855.5,194.8281,845.5,198.8281,849.5,194.8281" style="stroke: #A80036; stroke-width: 1.0;"/><line style="stroke: #A80036; stroke-width: 1.0;" x1="65.5" x2="851.5" y1="194.8281" y2="194.8281"/><text fill="#000000" font-family="sans-serif" font-size="13" lengthAdjust="spacingAndGlyphs" textLength="221" x="72.5" y="189.895">addRelationShips(foundClass, rels)</text></g></svg>