<?xml version="1.0" encoding="UTF-8" standalone="yes"?><svg xmlns="http://www.w3.org/2000/svg" xmlns:xlink="http://www.w3.org/1999/xlink" height="173px" style="width:502px;height:173px;" version="1.1" viewBox="0 0 502 173" width="502px"><defs><filter height="300%" id="fnn1g3e" width="300%" x="-1" y="-1"><feGaussianBlur result="blurOut" stdDeviation="2.0"/><feColorMatrix in="blurOut" result="blurOut2" type="matrix" values="0 0 0 0 0 0 0 0 0 0 0 0 0 0 0 0 0 0 .4 0"/><feOffset dx="4.0" dy="4.0" in="blurOut2" result="blurOut3"/><feBlend in="SourceGraphic" in2="blurOut3" mode="normal"/></filter></defs><g><rect fill="#FEFECE" filter="url(#fnn1g3e)" height="48" style="stroke: #A80036; stroke-width: 1.5;" width="104" x="29.5" y="8"/><ellipse cx="44.5" cy="24" fill="#ADD1B2" rx="11" ry="11" style="stroke: #A80036; stroke-width: 1.0;"/><path d="M47.4688,29.6406 Q46.8906,29.9375 46.25,30.0859 Q45.6094,30.2344 44.9063,30.2344 Q42.4063,30.2344 41.0859,28.5859 Q39.7656,26.9375 39.7656,23.8125 Q39.7656,20.6875 41.0859,19.0313 Q42.4063,17.375 44.9063,17.375 Q45.6094,17.375 46.2578,17.5313 Q46.9063,17.6875 47.4688,17.9844 L47.4688,20.7031 Q46.8438,20.125 46.25,19.8516 Q45.6563,19.5781 45.0313,19.5781 Q43.6875,19.5781 43,20.6484 Q42.3125,21.7188 42.3125,23.8125 Q42.3125,25.9063 43,26.9766 Q43.6875,28.0469 45.0313,28.0469 Q45.6563,28.0469 46.25,27.7734 Q46.8438,27.5 47.4688,26.9219 L47.4688,29.6406 Z "/><text fill="#000000" font-family="sans-serif" font-size="12" lengthAdjust="spacingAndGlyphs" textLength="72" x="58.5" y="28.1543">ClassFinder</text><line style="stroke: #A80036; stroke-width: 1.5;" x1="30.5" x2="132.5" y1="40" y2="40"/><line style="stroke: #A80036; stroke-width: 1.5;" x1="30.5" x2="132.5" y1="48" y2="48"/><rect fill="#FEFECE" filter="url(#fnn1g3e)" height="48" style="stroke: #A80036; stroke-width: 1.5;" width="108" x="168.5" y="8"/><ellipse cx="183.5" cy="24" fill="#ADD1B2" rx="11" ry="11" style="stroke: #A80036; stroke-width: 1.0;"/><path d="M186.4688,29.6406 Q185.8906,29.9375 185.25,30.0859 Q184.6094,30.2344 183.9063,30.2344 Q181.4063,30.2344 180.0859,28.5859 Q178.7656,26.9375 178.7656,23.8125 Q178.7656,20.6875 180.0859,19.0313 Q181.4063,17.375 183.9063,17.375 Q184.6094,17.375 185.2578,17.5313 Q185.9063,17.6875 186.4688,17.9844 L186.4688,20.7031 Q185.8438,20.125 185.25,19.8516 Q184.6563,19.5781 184.0313,19.5781 Q182.6875,19.5781 182,20.6484 Q181.3125,21.7188 181.3125,23.8125 Q181.3125,25.9063 182,26.9766 Q182.6875,28.0469 184.0313,28.0469 Q184.6563,28.0469 185.25,27.7734 Q185.8438,27.5 186.4688,26.9219 L186.4688,29.6406 Z "/><text fill="#000000" font-family="sans-serif" font-size="12" lengthAdjust="spacingAndGlyphs" textLength="76" x="197.5" y="28.1543">FillableClass</text><line style="stroke: #A80036; stroke-width: 1.5;" x1="169.5" x2="275.5" y1="40" y2="40"/><line style="stroke: #A80036; stroke-width: 1.5;" x1="169.5" x2="275.5" y1="48" y2="48"/><rect fill="#FEFECE" filter="url(#fnn1g3e)" height="48" style="stroke: #A80036; stroke-width: 1.5;" width="181" x="312" y="8"/><ellipse cx="327" cy="24" fill="#ADD1B2" rx="11" ry="11" style="stroke: #A80036; stroke-width: 1.0;"/><path d="M329.9688,29.6406 Q329.3906,29.9375 328.75,30.0859 Q328.1094,30.2344 327.4063,30.2344 Q324.9063,30.2344 323.5859,28.5859 Q322.2656,26.9375 322.2656,23.8125 Q322.2656,20.6875 323.5859,19.0313 Q324.9063,17.375 327.4063,17.375 Q328.1094,17.375 328.7578,17.5313 Q329.4063,17.6875 329.9688,17.9844 L329.9688,20.7031 Q329.3438,20.125 328.75,19.8516 Q328.1563,19.5781 327.5313,19.5781 Q326.1875,19.5781 325.5,20.6484 Q324.8125,21.7188 324.8125,23.8125 Q324.8125,25.9063 325.5,26.9766 Q326.1875,28.0469 327.5313,28.0469 Q328.1563,28.0469 328.75,27.7734 Q329.3438,27.5 329.9688,26.9219 L329.9688,29.6406 Z "/><text fill="#000000" font-family="sans-serif" font-size="12" lengthAdjust="spacingAndGlyphs" textLength="149" x="341" y="28.1543">FieldsContentProcessor</text><line style="stroke: #A80036; stroke-width: 1.5;" x1="313" x2="492" y1="40" y2="40"/><line style="stroke: #A80036; stroke-width: 1.5;" x1="313" x2="492" y1="48" y2="48"/><rect fill="#FEFECE" filter="url(#fnn1g3e)" height="48" style="stroke: #A80036; stroke-width: 1.5;" width="151" x="6" y="116"/><ellipse cx="21" cy="132" fill="#ADD1B2" rx="11" ry="11" style="stroke: #A80036; stroke-width: 1.0;"/><path d="M23.9688,137.6406 Q23.3906,137.9375 22.75,138.0859 Q22.1094,138.2344 21.4063,138.2344 Q18.9063,138.2344 17.5859,136.5859 Q16.2656,134.9375 16.2656,131.8125 Q16.2656,128.6875 17.5859,127.0313 Q18.9063,125.375 21.4063,125.375 Q22.1094,125.375 22.7578,125.5313 Q23.4063,125.6875 23.9688,125.9844 L23.9688,128.7031 Q23.3438,128.125 22.75,127.8516 Q22.1563,127.5781 21.5313,127.5781 Q20.1875,127.5781 19.5,128.6484 Q18.8125,129.7188 18.8125,131.8125 Q18.8125,133.9063 19.5,134.9766 Q20.1875,136.0469 21.5313,136.0469 Q22.1563,136.0469 22.75,135.7734 Q23.3438,135.5 23.9688,134.9219 L23.9688,137.6406 Z "/><text fill="#000000" font-family="sans-serif" font-size="12" lengthAdjust="spacingAndGlyphs" textLength="119" x="35" y="136.1543">RelationshipsStack</text><line style="stroke: #A80036; stroke-width: 1.5;" x1="7" x2="156" y1="148" y2="148"/><line style="stroke: #A80036; stroke-width: 1.5;" x1="7" x2="156" y1="156" y2="156"/><rect fill="#FEFECE" filter="url(#fnn1g3e)" height="48" style="stroke: #A80036; stroke-width: 1.5;" width="110" x="192.5" y="116"/><ellipse cx="207.5" cy="132" fill="#ADD1B2" rx="11" ry="11" style="stroke: #A80036; stroke-width: 1.0;"/><path d="M210.4688,137.6406 Q209.8906,137.9375 209.25,138.0859 Q208.6094,138.2344 207.9063,138.2344 Q205.4063,138.2344 204.0859,136.5859 Q202.7656,134.9375 202.7656,131.8125 Q202.7656,128.6875 204.0859,127.0313 Q205.4063,125.375 207.9063,125.375 Q208.6094,125.375 209.2578,125.5313 Q209.9063,125.6875 210.4688,125.9844 L210.4688,128.7031 Q209.8438,128.125 209.25,127.8516 Q208.6563,127.5781 208.0313,127.5781 Q206.6875,127.5781 206,128.6484 Q205.3125,129.7188 205.3125,131.8125 Q205.3125,133.9063 206,134.9766 Q206.6875,136.0469 208.0313,136.0469 Q208.6563,136.0469 209.25,135.7734 Q209.8438,135.5 210.4688,134.9219 L210.4688,137.6406 Z "/><text fill="#000000" font-family="sans-serif" font-size="12" lengthAdjust="spacingAndGlyphs" textLength="78" x="221.5" y="136.1543">RelationShip</text><line style="stroke: #A80036; stroke-width: 1.5;" x1="193.5" x2="301.5" y1="148" y2="148"/><line style="stroke: #A80036; stroke-width: 1.5;" x1="193.5" x2="301.5" y1="156" y2="156"/></g></svg>